<?xml version="1.0" encoding="utf-8"?>
<!-- Generator: Adobe Illustrator 26.3.1, SVG Export Plug-In . SVG Version: 6.00 Build 0)  -->
<svg version="1.1" id="Capa_1" xmlns="http://www.w3.org/2000/svg" xmlns:xlink="http://www.w3.org/1999/xlink" x="0px" y="0px"
	 viewBox="0 0 512 512" style="enable-background:new 0 0 512 512;" xml:space="preserve">
<style type="text/css">
	.st0{clip-path:url(#SVGID_00000088855825922393672980000015032974458096881554_);}
	.st1{fill:none;}
	.st2{fill-rule:evenodd;clip-rule:evenodd;}
</style>
<g>
	<defs>
		<rect id="SVGID_1_" width="512" height="512"/>
	</defs>
	<clipPath id="SVGID_00000016038145929045909090000013177565001962635910_">
		<use xlink:href="#SVGID_1_"  style="overflow:visible;"/>
	</clipPath>
	<g style="clip-path:url(#SVGID_00000016038145929045909090000013177565001962635910_);">
		<rect class="st1" width="512" height="512"/>
		<path class="st2" d="M466.9,271c-2.2,0-4,1.8-4,4v26c0,2.2,1.8,4,4,4h26c2.2,0,4-1.8,4-4v-26c0-2.2-1.8-4-4-4H466.9z M19,271
			c-2.2,0-4,1.8-4,4v26c0,2.2,1.8,4,4,4h26c2.2,0,4-1.8,4-4v-26c0-2.2-1.8-4-4-4H19z M279.6,74l15.9,2.3l-1.5,4.7
			c-6.2,14.7-20.8,25-37.9,25c-17,0-31.6-10.3-37.9-25l-1.5-4.7l15.9-2.2l0.2,0.8c3.8,9,12.8,15.3,23.2,15.3
			c10.4,0,19.4-6.3,23.2-15.3L279.6,74z M429.8,56.4c-4.8,0-8.6,3.8-8.6,8.6c0,4.7,3.9,8.6,8.6,8.6c4.8,0,8.6-3.8,8.6-8.6
			C438.4,60.2,434.5,56.4,429.8,56.4z M82.6,56.4c-4.8,0-8.6,3.8-8.6,8.6c0,4.7,3.9,8.6,8.6,8.6c4.8,0,8.6-3.8,8.6-8.6
			C91.2,60.2,87.3,56.4,82.6,56.4z M256.1,24c19.9,0,36.4,14,40.3,32.7l0.1,1l0,0h110.7l0.4-2.1c3.7-8.6,12.2-14.7,22.2-14.7
			c13.3,0,24.1,10.8,24.1,24c0,13.3-10.8,24-24.1,24c-10,0-18.6-6.1-22.2-14.7l-0.2-0.9h-62.1l15.5,6.9
			c60.5,30.2,106.4,86,122.8,153.9l3.8,21.9h17.1c4.2,0,7.6,3.4,7.6,7.6v48.8c0,4.2-3.4,7.6-7.6,7.6h-48.9c-4.2,0-7.6-3.4-7.6-7.6
			v-48.8c0-4.2,3.4-7.6,7.6-7.6h14.8l-1.2-8c-16.8-87.5-85.7-155.1-172-171.6l-1.7-0.2L279.6,74l0.2-0.6l1-3.4
			c0.3-1.6,0.5-3.3,0.5-5.1c0-1.7-0.2-3.4-0.5-5.1l-0.7-2.2l0,0l-0.2-0.8l-0.5-1.7c-3.8-9-12.8-15.3-23.2-15.3s-19.4,6.3-23.2,15.3
			l-0.5,1.7l-0.2,0.7l0,0l-0.7,2.2c-0.3,1.6-0.5,3.3-0.5,5.1c0,1.7,0.2,3.4,0.5,5.1l1,3.4l0.2,0.6l-15.9,2.2l-0.8,0.1
			C129.7,92.4,60.5,159.8,43.3,247.2l-1.4,8.9h14.6c4.2,0,7.6,3.4,7.6,7.6v48.8c0,4.2-3.4,7.6-7.6,7.6H7.6c-4.2,0-7.6-3.4-7.6-7.6
			v-48.8c0-4.2,3.4-7.6,7.6-7.6h17.3l4.1-22.8c16.7-67.9,62.8-123.4,123.4-153.4l14.6-6.4h-62l-0.2,0.9C101.1,83,92.5,89,82.6,89
			c-13.3,0-24.1-10.8-24.1-24c0-13.3,10.8-24,24.1-24c10,0,18.6,6.1,22.2,14.7l0.4,2.1h110.6l0.1-1C219.7,38,236.3,24,256.1,24z"/>
		<path class="st2" d="M194.3,431.4l-13.1,42h149.7l-13.1-42h-37.9h-4.6H256h-19.2h-4.6H194.3z M256,298.4
			c-17.3,0-31.3,14-31.3,31.3c0,17.3,14,31.3,31.3,31.3s31.3-14,31.3-31.3C287.3,312.4,273.3,298.4,256,298.4z M241.3,137.6
			l-83.6,197.9l35.1,78.7h48.5h2.9h11.8h0.1h11.8h2.9h48.5l35.1-78.7l-83.6-197.9h-6.6v145.9l1.4,0.1c21.4,4.4,37.5,23.3,37.5,46
			c0,26-21,47-47,47s-47-21-47-47c0-22.7,16.1-41.7,37.5-46l1.4-0.1V137.6H241.3z M232.2,122H256h23.8L372,334.8l-40.1,92.4L351,488
			H161l19.1-60.9L140,334.8L232.2,122z"/>
	</g>
</g>
</svg>
