<?xml version="1.0" encoding="utf-8"?>
<!-- Generator: Adobe Illustrator 26.3.1, SVG Export Plug-In . SVG Version: 6.00 Build 0)  -->
<svg version="1.1" id="Capa_1" xmlns="http://www.w3.org/2000/svg" xmlns:xlink="http://www.w3.org/1999/xlink" x="0px" y="0px"
	 viewBox="0 0 512 512" style="enable-background:new 0 0 512 512;" xml:space="preserve">
<style type="text/css">
	.st0{clip-path:url(#SVGID_00000051379786082079701800000005586586539589958788_);}
	.st1{fill:none;}
	.st2{fill-rule:evenodd;clip-rule:evenodd;}
</style>
<g>
	<defs>
		<rect id="SVGID_1_" width="512" height="512"/>
	</defs>
	<clipPath id="SVGID_00000142888297935329409680000006577095378864009659_">
		<use xlink:href="#SVGID_1_"  style="overflow:visible;"/>
	</clipPath>
	<g style="clip-path:url(#SVGID_00000142888297935329409680000006577095378864009659_);">
		<rect class="st1" width="512" height="512"/>
		<path class="st2" d="M63,89.5C63,72.1,77.1,58,94.5,58S126,72.1,126,89.5c0,17.4-14.1,31.5-31.5,31.5S63,106.9,63,89.5z
			 M77.5,89.5c0,9.4,7.6,17,17,17c9.4,0,17-7.6,17-17c0-9.4-7.6-17-17-17C85.1,72.5,77.5,80.1,77.5,89.5z"/>
		<path class="st2" d="M151,89.5c0-17.4,14.1-31.5,31.5-31.5S214,72.1,214,89.5c0,17.4-14.1,31.5-31.5,31.5S151,106.9,151,89.5z
			 M165.5,89.5c0,9.4,7.6,17,17,17s17-7.6,17-17c0-9.4-7.6-17-17-17S165.5,80.1,165.5,89.5z"/>
		<path class="st2" d="M300.7,77.6c-7.4,0-13.4,5.3-13.4,11.9s6,11.9,13.4,11.9h88.6c7.4,0,13.4-5.3,13.4-11.9s-6-11.9-13.4-11.9
			H300.7z M302.4,58h85.1c19.6,0,35.4,14.1,35.4,31.5c0,17.4-15.9,31.5-35.4,31.5h-85.1c-19.6,0-35.4-14.1-35.4-31.5
			C267,72.1,282.9,58,302.4,58z"/>
		<path class="st2" d="M303.4,406.4l3.4,7c1.3,2.4,2.8,4.8,4.3,7.1l0.7,1l-9.6,16.6l-5.8-7.7l5.8,7.7l-4.1,7.2l11.4,11.4l7.2-4.1
			l0,0l16.6-9.6l1.1,0.8c2.3,1.6,4.7,3,7.1,4.3l6.8,3.3l0.7,0.3l1.7,0.6l3.4,19.8l-2.4-0.6c-6.5-2-12.7-4.7-18.6-7.9l-1.1-0.7l0,0
			l-23.8,16.8L275,446.6l16.8-23.8L303.4,406.4z M302.2,341.1l-2,5.5c-0.8,2.7-1.6,5.5-2.1,8.3l-0.4,2.8l-18.5,5l0.1-1
			c0.4-3.5,0.9-6.9,1.6-10.3l1.7-6.8L302.2,341.1z M382.5,334.3c-20.9,0-37.8,17-37.8,37.9c0,2.6,0.3,5.2,0.8,7.6l0.4,1.1l0,0l1.8,6
			c1.9,4.5,4.7,8.6,8.1,12.1l4.1,3.4l1.5,1.2c6,4.1,13.3,6.5,21.2,6.5s15.1-2.4,21.2-6.5l1.5-1.2l0,0l4.1-3.4
			c3.4-3.4,6.2-7.5,8.1-12.1l1.8-6l0.4-1.1c0.5-2.5,0.8-5,0.8-7.6C420.4,351.3,403.4,334.3,382.5,334.3z M382.5,317.3
			c30.3,0,54.8,24.6,54.8,54.9l-0.5,5.2l-0.6,5.9c-0.7,3.6-1.8,7-3.2,10.3l-4.5,8.3l0,0l-0.5,1c-9.9,14.6-26.5,24.2-45.5,24.2
			s-35.6-9.6-45.5-24.2l-0.3-0.5l-4.8-8.8c-1.4-3.3-2.5-6.7-3.2-10.3l-0.2-2.3l-0.9-8.8C327.7,341.9,352.3,317.3,382.5,317.3z
			 M301.8,306.9l9.6,16.6l-0.3,0.4c-3.1,4.6-5.8,9.5-7.9,14.7l0,0.1h0l-0.9,2.4l-19.6,3.4l0.8-3.2c2-6.5,4.7-12.8,7.9-18.7l0.3-0.4
			l0,0l4.9-8.2L301.8,306.9z M307.8,265l23.6,16.7l-6.9,4.2l6.9-4.2l0,0l1.6-1c5.9-3.2,12.1-5.9,18.6-7.9l2.4-0.6l-3.4,19.8
			l-1.7,0.6l-1.3,0.6l-6.2,3c-2.4,1.3-4.8,2.8-7.1,4.3l-1.6,1.2l-16.6-9.6l0.3-0.3l-0.3,0.3l-7.1-4.1l-11.4,11.4l4.2,7.3l-5.4,7.2
			l-4.9,8.2l-16.9-24L307.8,265z M359,243.5h46.9l4.9,28.7l0,0l0,0l2.5,0.7c6.5,2,12.7,4.7,18.6,7.9l1,0.6l0,0l0,0l22.9-16.2
			l0.8-0.6l17.6,17.6v0l15.6,15.6l-15.6,22.1l0,0v3.8l3.9,8c1.3,3.1,2.5,6.3,3.5,9.6l0.8,3.2l1.7,6.8c0.7,3.4,1.2,6.8,1.6,10.3
			c-0.4-3.5-0.9-6.9-1.6-10.3l-1.7-6.8l28.5,4.9v47l-28.9,5l-0.5,1.8c-2,6.5-4.7,12.8-7.9,18.7l-1,1.7l16.7,23.6l-33.2,33.2
			l-23.9-16.9l-0.4,0.3c-5.9,3.2-12.1,5.9-18.6,7.9l-2.5,0.7l-4.9,28.7H359l-4.9-28.8l-3.4-19.8l6.2,2.3c2.7,0.8,5.5,1.6,8.3,2.1
			l2.1,0.3l5,18.6l2.2,8h16.1l2.2-8l5-18.6l2.2-0.3c2.8-0.6,5.6-1.3,8.3-2.1l6.1-2.2l1.8-0.6l0,0c5.2-2.2,10.1-4.9,14.6-8l0.5-0.3
			l16.6,9.6l7.2,4.2l11.4-11.4l-4.1-7.1l-9.5-16.6l1.2-1.6c1.5-2.3,3-4.7,4.3-7.1l3-6.2l0.6-1.3l0.4-1.1l2.5-6.8
			c0.8-2.7,1.5-5.5,2.1-8.3l0.2-1.5l18.6-5l8.1-2.2v-16.2l-8-2.1l-12.3-3.3l-6.2-1.7l-0.4-2.8c-0.6-2.8-1.3-5.6-2.1-8.3l-2-5.5
			l-0.9-2.5l-0.3-0.7l0,0l-3.3-6.8l-2.4-4l-1.9-3.1l-0.8-1.1l2.7-4.7l6.9-12l4.1-7.2l-11-11l-0.4-0.4l-7.2,4.1l-16.6,9.6l-1-0.7
			c-2.3-1.6-4.7-3-7.1-4.3l-7-3.4h0l-0.6-0.3l-1.8-0.7l-3.4-19.7l-7.4-1.9l7.4,1.9l3.4,19.7l-6.1-2.2c-2.7-0.8-5.5-1.6-8.3-2.1
			l-2.2-0.3l-5-18.6l-2.2-8h-16.1l-2.2,8l-0.4,0l0.4,0l-5,18.6l-2.1,0.3c-2.8,0.6-5.6,1.3-8.3,2.1l-6.2,2.3l3.4-19.8l7.5-1.9
			l-7.5,1.9L359,243.5z M53.4,31.4c-18.7,0-33.9,15.2-33.9,34v78.3h436.4V65.4c0-18.8-15.2-34-33.9-34H53.4z M51.5,10h372.3
			c27.9,0,50.5,22.7,50.5,50.6v221.6l-17.6-17.6l-0.8,0.6v-101H19.4V347c0,18.8,15.2,34,33.9,34h200.7v-31.6l28.5-4.9l-1.7,6.8
			c-0.7,3.4-1.2,6.8-1.6,10.3l-0.1,1l-8,2.1V381l0.2,0.1l7.8,2.1l18.6,5l0.2,1.5c0.6,2.8,1.3,5.6,2.1,8.3l1.6,4.5l0.9,2.3l-13.6-2.3
			h0l13.6,2.3l0.4,1.1l0.3,0.6l-11.5,16.4l-0.6-1c-3.2-5.9-5.8-12.1-7.9-18.7l-0.2-0.7H51.5C23.6,402.4,1,379.8,1,351.8V60.6
			C1,32.7,23.6,10,51.5,10z"/>
		<path class="st2" d="M138.2,321c-5.4-1.4-8.6-7-7.1-12.3l20.2-75.3c1.4-5.4,7-8.6,12.3-7.1l0,0c5.4,1.4,8.6,7,7.1,12.3l-20.2,75.3
			C149.1,319.3,143.5,322.5,138.2,321z"/>
		<path class="st2" d="M102.2,225.7c2.6,0,5.2,1,7.1,2.9h0c3.9,3.9,3.9,10.3,0,14.2l-31.2,31.2l31.2,31.2c3.9,3.9,3.9,10.3,0,14.2
			l0,0c-3.9,3.9-10.3,3.9-14.2,0l-37.8-37.8c-2-2-3-4.5-3-7.1l0.1-0.5l-0.1-0.5c0-2.6,1-5.2,3-7.1l37.8-37.8
			C97.1,226.7,99.6,225.7,102.2,225.7z"/>
		<path class="st2" d="M199.5,225.7c2.6,0,5.2,1,7.1,3l37.8,37.8c2,2,3,4.5,3,7.1l-0.1,0.5l0.1,0.5c0,2.6-1,5.2-3,7.1l-37.8,37.8
			c-3.9,3.9-10.3,3.9-14.2,0l0,0c-3.9-3.9-3.9-10.3,0-14.2l31.2-31.2l-31.2-31.2c-3.9-3.9-3.9-10.3,0-14.2l0,0
			C194.4,226.7,196.9,225.7,199.5,225.7z"/>
	</g>
</g>
</svg>
