<svg xmlns:xlink="http://www.w3.org/1999/xlink" id="Capa_1" x="0" y="0" version="1.1" viewBox="0 0 512 512" xml:space="preserve"><style>.st2{fill-rule:evenodd;clip-rule:evenodd}</style><defs><path id="SVGID_1_" d="M0 0h512v512H0z"/></defs><clipPath id="SVGID_00000142888297935329409680000006577095378864009659_"><use overflow="visible" xlink:href="#SVGID_1_"/></clipPath><g clip-path="url(#SVGID_00000142888297935329409680000006577095378864009659_)"><path fill="none" d="M0 0h512v512H0z"/><path d="M63 89.5C63 72.1 77.1 58 94.5 58S126 72.1 126 89.5 111.9 121 94.5 121 63 106.9 63 89.5zm14.5 0c0 9.4 7.6 17 17 17s17-7.6 17-17-7.6-17-17-17-17 7.6-17 17zM151 89.5c0-17.4 14.1-31.5 31.5-31.5S214 72.1 214 89.5 199.9 121 182.5 121 151 106.9 151 89.5zm14.5 0c0 9.4 7.6 17 17 17s17-7.6 17-17-7.6-17-17-17-17 7.6-17 17zM300.7 77.6c-7.4 0-13.4 5.3-13.4 11.9s6 11.9 13.4 11.9h88.6c7.4 0 13.4-5.3 13.4-11.9s-6-11.9-13.4-11.9h-88.6zm1.7-19.6h85.1c19.6 0 35.4 14.1 35.4 31.5S407 121 387.5 121h-85.1c-19.6 0-35.4-14.1-35.4-31.5S282.9 58 302.4 58z" class="st2"/><path d="M303.4 406.4l3.4 7c1.3 2.4 2.8 4.8 4.3 7.1l.7 1-9.6 16.6-5.8-7.7 5.8 7.7-4.1 7.2 11.4 11.4 7.2-4.1 16.6-9.6 1.1.8c2.3 1.6 4.7 3 7.1 4.3l6.8 3.3.7.3 1.7.6 3.4 19.8-2.4-.6c-6.5-2-12.7-4.7-18.6-7.9l-1.1-.7-23.8 16.8-33.2-33.1 16.8-23.8 11.6-16.4zm-1.2-65.3l-2 5.5c-.8 2.7-1.6 5.5-2.1 8.3l-.4 2.8-18.5 5 .1-1c.4-3.5.9-6.9 1.6-10.3l1.7-6.8 19.6-3.5zm80.3-6.8c-20.9 0-37.8 17-37.8 37.9 0 2.6.3 5.2.8 7.6l.4 1.1 1.8 6c1.9 4.5 4.7 8.6 8.1 12.1l4.1 3.4 1.5 1.2c6 4.1 13.3 6.5 21.2 6.5s15.1-2.4 21.2-6.5l1.5-1.2 4.1-3.4c3.4-3.4 6.2-7.5 8.1-12.1l1.8-6 .4-1.1c.5-2.5.8-5 .8-7.6-.1-20.9-17.1-37.9-38-37.9zm0-17c30.3 0 54.8 24.6 54.8 54.9l-.5 5.2-.6 5.9c-.7 3.6-1.8 7-3.2 10.3l-4.5 8.3-.5 1c-9.9 14.6-26.5 24.2-45.5 24.2s-35.6-9.6-45.5-24.2l-.3-.5-4.8-8.8c-1.4-3.3-2.5-6.7-3.2-10.3l-.2-2.3-.9-8.8c.1-30.3 24.7-54.9 54.9-54.9zm-80.7-10.4l9.6 16.6-.3.4c-3.1 4.6-5.8 9.5-7.9 14.7v.1l-.9 2.4-19.6 3.4.8-3.2c2-6.5 4.7-12.8 7.9-18.7l.3-.4 4.9-8.2 5.2-7.1zm6-41.9l23.6 16.7-6.9 4.2 6.9-4.2 1.6-1c5.9-3.2 12.1-5.9 18.6-7.9l2.4-.6-3.4 19.8-1.7.6-1.3.6-6.2 3c-2.4 1.3-4.8 2.8-7.1 4.3l-1.6 1.2-16.6-9.6.3-.3-.3.3-7.1-4.1-11.4 11.4 4.2 7.3-5.4 7.2-4.9 8.2-16.9-24 33.2-33.1zm51.2-21.5h46.9l4.9 28.7 2.5.7c6.5 2 12.7 4.7 18.6 7.9l1 .6 22.9-16.2.8-.6 17.6 17.6 15.6 15.6-15.6 22.1v3.8l3.9 8c1.3 3.1 2.5 6.3 3.5 9.6l.8 3.2 1.7 6.8c.7 3.4 1.2 6.8 1.6 10.3-.4-3.5-.9-6.9-1.6-10.3l-1.7-6.8 28.5 4.9v47l-28.9 5-.5 1.8c-2 6.5-4.7 12.8-7.9 18.7l-1 1.7 16.7 23.6-33.2 33.2-23.9-16.9-.4.3c-5.9 3.2-12.1 5.9-18.6 7.9l-2.5.7-4.9 28.7H359l-4.9-28.8-3.4-19.8 6.2 2.3c2.7.8 5.5 1.6 8.3 2.1l2.1.3 5 18.6 2.2 8h16.1l2.2-8 5-18.6 2.2-.3c2.8-.6 5.6-1.3 8.3-2.1l6.1-2.2 1.8-.6c5.2-2.2 10.1-4.9 14.6-8l.5-.3 16.6 9.6 7.2 4.2 11.4-11.4-4.1-7.1-9.5-16.6 1.2-1.6c1.5-2.3 3-4.7 4.3-7.1l3-6.2.6-1.3.4-1.1 2.5-6.8c.8-2.7 1.5-5.5 2.1-8.3l.2-1.5 18.6-5 8.1-2.2v-16.2l-8-2.1-12.3-3.3-6.2-1.7-.4-2.8c-.6-2.8-1.3-5.6-2.1-8.3l-2-5.5-.9-2.5-.3-.7-3.3-6.8-2.4-4-1.9-3.1-.8-1.1 2.7-4.7 6.9-12 4.1-7.2-11-11-.4-.4-7.2 4.1-16.6 9.6-1-.7c-2.3-1.6-4.7-3-7.1-4.3l-7-3.4-.6-.3-1.8-.7-3.4-19.7-7.4-1.9 7.4 1.9 3.4 19.7-6.1-2.2c-2.7-.8-5.5-1.6-8.3-2.1l-2.2-.3-5-18.6-2.2-8h-16.1l-2.2 8h-.4.4l-5 18.6-2.1.3c-2.8.6-5.6 1.3-8.3 2.1l-6.2 2.3 3.4-19.8 7.5-1.9-7.5 1.9 5-29zM53.4 31.4c-18.7 0-33.9 15.2-33.9 34v78.3h436.4V65.4c0-18.8-15.2-34-33.9-34H53.4zM51.5 10h372.3c27.9 0 50.5 22.7 50.5 50.6v221.6l-17.6-17.6-.8.6v-101H19.4V347c0 18.8 15.2 34 33.9 34H254v-31.6l28.5-4.9-1.7 6.8c-.7 3.4-1.2 6.8-1.6 10.3l-.1 1-8 2.1V381l.2.1 7.8 2.1 18.6 5 .2 1.5c.6 2.8 1.3 5.6 2.1 8.3l1.6 4.5.9 2.3-13.6-2.3 13.6 2.3.4 1.1.3.6-11.5 16.4-.6-1c-3.2-5.9-5.8-12.1-7.9-18.7l-.2-.7H51.5C23.6 402.4 1 379.8 1 351.8V60.6C1 32.7 23.6 10 51.5 10z" class="st2"/><path d="M138.2 321c-5.4-1.4-8.6-7-7.1-12.3l20.2-75.3c1.4-5.4 7-8.6 12.3-7.1 5.4 1.4 8.6 7 7.1 12.3l-20.2 75.3c-1.4 5.4-7 8.6-12.3 7.1zM102.2 225.7c2.6 0 5.2 1 7.1 2.9 3.9 3.9 3.9 10.3 0 14.2L78.1 274l31.2 31.2c3.9 3.9 3.9 10.3 0 14.2-3.9 3.9-10.3 3.9-14.2 0l-37.8-37.8c-2-2-3-4.5-3-7.1l.1-.5-.1-.5c0-2.6 1-5.2 3-7.1l37.8-37.8c2-1.9 4.5-2.9 7.1-2.9zM199.5 225.7c2.6 0 5.2 1 7.1 3l37.8 37.8c2 2 3 4.5 3 7.1l-.1.5.1.5c0 2.6-1 5.2-3 7.1l-37.8 37.8c-3.9 3.9-10.3 3.9-14.2 0-3.9-3.9-3.9-10.3 0-14.2l31.2-31.2-31.2-31.2c-3.9-3.9-3.9-10.3 0-14.2 2-2 4.5-3 7.1-3z" class="st2"/></g></svg>