<svg width="100" height="100" viewBox="0 0 950 950" xmlns="http://www.w3.org/2000/svg" xmlns:xlink="http://www.w3.org/1999/xlink" overflow="hidden"><defs><clipPath id="clip0"><rect x="-1" y="80" width="949" height="920"/></clipPath></defs><g clip-path="url(#clip0)" transform="translate(1 -80)"><path d="M802.151 389.339 723.901 524.874 737.487 532.717 815.736 397.183ZM413.285 256.347 169.086 679.317 211.482 703.795 455.681 280.825ZM244.199 158.724 286.595 183.202 42.396 606.172 0 581.694ZM436.495 80 674.704 484.96 747.97 358.057 761.555 365.901 683.845 500.5 697.403 523.549 809.589 332.831 943.113 559.826 947 570.73 944.875 584.654C929.754 658.549 898.926 726.724 856.033 785.537L844.374 800.192 836.921 810.158 833.4 813.987 828.877 819.672C809.847 841.64 789.003 861.995 766.578 880.502L761.208 884.518 756.872 888.32 744.652 896.898 734.364 904.592 734.308 904.161 710.904 920.591C631.299 970.285 537.251 999 436.495 999 275.287 999 131.248 925.489 36.0698 810.158L19.7971 788.397Z" fill-rule="evenodd"/></g></svg>