<?xml version="1.0" encoding="utf-8"?>
<!-- Generator: Adobe Illustrator 26.3.1, SVG Export Plug-In . SVG Version: 6.00 Build 0)  -->
<svg version="1.1" id="Capa_1" xmlns="http://www.w3.org/2000/svg" xmlns:xlink="http://www.w3.org/1999/xlink" x="0px" y="0px"
	 viewBox="0 0 512 512" style="enable-background:new 0 0 512 512;" xml:space="preserve">
<style type="text/css">
	.st0{clip-path:url(#SVGID_00000063608463084582794160000015178302947062140567_);}
	.st1{fill:none;}
	.st2{fill-rule:evenodd;clip-rule:evenodd;}
</style>
<g>
	<defs>
		<rect id="SVGID_1_" width="512" height="512"/>
	</defs>
	<clipPath id="SVGID_00000142170162845373450670000006254367507779945141_">
		<use xlink:href="#SVGID_1_"  style="overflow:visible;"/>
	</clipPath>
	<g style="clip-path:url(#SVGID_00000142170162845373450670000006254367507779945141_);">
		<rect class="st1" width="512" height="512"/>
		<path class="st2" d="M297,330.8l1.3,8.5l1.8,6.9l-1.8-6.9L297,330.8z M299.8,298l-1.5,5.8c-0.6,2.9-1,5.8-1.3,8.8
			c0.3-3,0.7-5.9,1.3-8.8L299.8,298z M384.8,289.4l-1.5,0.1l0,0v64.1l1.5,0.1c17.8,0,32.2-14.4,32.2-32.2
			C416.9,303.8,402.5,289.4,384.8,289.4z M384.8,274.9c25.7,0,46.6,20.9,46.6,46.6c0,25.8-20.9,46.6-46.6,46.6l-1.5-0.1l-7.9-0.8
			l-7.2-2.2v-16v-54.9v-16l7.2-2.2l7.9-0.8v0L384.8,274.9z M453,265.5l5,6.7l3.9,6.3l0.6,0.9c2.7,5,5,10.3,6.7,15.8l0.7,2.7
			l-16.7-2.9l-0.8-2.1l-0.3-0.6l0,0l-2.8-5.8c-1.1-2.1-2.4-4.1-3.7-6l-0.7-0.9L453,265.5z M77.9,265.5l6.3,3.9v0L77.9,265.5z
			 M143.8,235.7v27.9l-1.8,0.5l-1.9,0.3l-4.2,15.7l-1.8,6.8l0,0l1.8-6.8l4.2-15.7l1.9-0.3l1.8-0.5v37.9l0,0l0,0h-15.1v-14.6l0,0
			v14.6l0,0l0,0h15.1v154.4c0,13.1,10.7,23.8,23.8,23.8h176.8c13.1,0,23.8-10.7,23.8-23.8v-25.1v-37.9V365l7.2,2.2l7.9,0.8v48.2v0
			h8.3l1.8-6.8l4.2-15.7l1.9-0.3c2.4-0.5,4.7-1.1,7-1.8l5.2-1.9l1.5-0.6l0,0c4.4-1.9,8.5-4.1,12.4-6.8l0.4-0.3l14.1,8.1l6.2,3.5
			l9.7-9.7l-3.5-6l-8.1-14.1l1-1.4c1.3-2,2.5-4,3.7-6l2.5-5.3l0.5-1.1l0.3-0.9l2.1-5.8c0.7-2.3,1.3-4.6,1.8-7l0.2-1.3l15.8-4.3
			l6.8-1.8v-13.7l-6.8-1.8l-15.7-4.2l-0.4-2.4c-0.5-2.4-1.1-4.7-1.8-7l-1.7-4.6l16.7,2.9l1.5,5.8l-1.5-5.8l24.2,4.2V342l-24.5,4.2
			l-0.4,1.5c-1.7,5.5-4,10.8-6.7,15.8l-0.9,1.4l14.2,20.1l-28.2,28.2L427.2,399l-0.4,0.2c-5,2.7-10.3,5-15.8,6.7l-2.1,0.6l-4.2,24.4
			h-21.4v26.4c0,21.4-17.3,38.8-38.7,38.8H167.4c-21.4,0-38.7-17.4-38.7-38.8V301.6h-21.4l-4.2-24.4l-2.1-0.5
			c-5.5-1.7-10.8-4-15.8-6.7l-0.9-0.6v0l-6.3-3.9l-6.7-5l14.1-8.1l0.9,0.7c1.9,1.3,4,2.5,6,3.7l5.8,2.8l0.6,0.3l1.5,0.5l5.3,1.9
			c2.3,0.7,4.6,1.3,7,1.8l1.8,0.3l4.2,15.8l1.8,6.8h8.4v-48.2l0,0l7.9-0.8L143.8,235.7z M50.1,235.2l3.9,6.5l4.9,6.6l-4.9-6.6
			L50.1,235.2z M50.1,235.2l3.9,6.5l4.9,6.6l-3.5,6.1l9.7,9.7l6.1-3.5l6.7,5l6.3,3.9L64,283.6l-28.2-28.2L50.1,235.2z M376,233.7
			L376,233.7L376,233.7z M376.1,233.7l-4.2,15.8l-1.8,0.3l-1.8,0.5v-15.3l7.6-1.2L376.1,233.7L376.1,233.7l-0.3,0L376.1,233.7
			L376.1,233.7L376.1,233.7z M393.4,233.7l0.4,0l7.5,1.1l1.3,0.2l1.6,0.4l4.7,1.2l2.9,16.8l-5.2-1.9c-2.3-0.7-4.6-1.3-7-1.8
			l-1.9-0.3L393.4,233.7z M447.9,230.1l28.2,28.2l-14.2,20.2l-3.9-6.3l-5-6.7l3.5-6.1l-9.7-9.7l-6.1,3.5l-14.1,8.1l-0.8-0.6
			c-2-1.3-4-2.5-6-3.7l-5.9-2.9l-0.5-0.2l-1.5-0.6l-2.9-16.8h0l0,0h0l2.1,0.6c5.5,1.7,10.8,4,15.8,6.7l0.8,0.5l0,0l0,0l6.4,3.9
			l-6.4-3.9L447.9,230.1z M143.8,219.7v16l0,0l0,0l-7.2,2.2l-7.9,0.8v-14.4l5-0.5c2.1-0.4,4.1-1.1,6-1.9L143.8,219.7z M42.5,217
			l16.8,2.9l0.3,0.9l0.2,0.5l2.9,5.9c1.1,2.1,2.4,4.1,3.7,6l0.6,0.8l-8.1,14.1l-4.9-6.6l-3.9-6.5l-0.5-0.8c-2.7-5-5-10.3-6.7-15.8
			L42.5,217z M368.2,212.3h15.1l0,0h21.4l4.2,24.4l-6.3-1.6l6.3,1.6l0,0l-4.7-1.2l-1.6-0.4l-1.3-0.2l-7.5-1.1l-0.4,0l-1.8-6.8h-8.3
			v48.2l-7.9,0.8l-7.2,2.2v-27.9l0,0l0,0l1.8-0.5l1.8-0.3l4.2-15.8h0l0,0h0l-0.3,0l-7.6,1.2V212.3z M40.4,176.6l-1,6.6l0,0.7l0-0.7
			L40.4,176.6z M127.2,145.6l1.5,0.1v14.4l0,0l0,0l5,0.5c2.1,0.4,4.1,1.1,6,1.9l4.1,2.2v54.9l-4.1,2.2c-1.9,0.8-3.9,1.4-6,1.9
			l-5,0.5v-64.1l-1.5-0.1c-17.8,0-32.2,14.4-32.2,32.2s14.4,32.2,32.2,32.2l1.5-0.1v14.4l-1.5,0.1c-25.7,0-46.6-20.9-46.6-46.6
			S101.5,145.6,127.2,145.6z M94.6,123.1l3,2.1l0,0L94.6,123.1z M78.1,118.9l-0.2,0.1l0,0L78.1,118.9z M83.8,115.5l13.8,9.8
			l-5.3,2.5c-2.1,1.1-4.1,2.4-6,3.7l-1.3,1l-14.1-8.1l0.1,0l0.2-0.2c2.2-1.8,4.4-3.5,6.8-5.1l0,0l-6.8,5.1l-0.3,0.2l0.3-0.2
			c2.2-1.8,4.4-3.5,6.8-5.1L83.8,115.5z M83.8,115.5L83.8,115.5l-5.7,3.5L83.8,115.5z M83.8,115.5l4.5,3.2l6.3,4.5L83.8,115.5
			L83.8,115.5L83.8,115.5L83.8,115.5z M103.1,107.4l-2.9,16.8l-1.5,0.5l-1.1,0.5l-9.3-6.6l-4.5-3.2l1.4-0.9c5-2.7,10.3-5,15.8-6.7
			L103.1,107.4z M63.7,101.3l20.1,14.2l-5.9,3.6c-2.3,1.6-4.6,3.3-6.8,5.1l-0.2,0.2l-0.1,0l0,0l-6.1-3.5l-9.7,9.7l3.6,6.2l-4.6,6.1
			l-4.2,6.9l4.2-6.9l4.6-6.1l8.1,14.1l-0.3,0.4c-2.6,3.9-4.9,8.1-6.8,12.5l0,0l0,0l-0.7,2l-1.7,4.6c-0.7,2.3-1.3,4.6-1.8,7l-0.4,2.4
			l-15.7,4.2l0-0.9c0.3-3,0.7-5.9,1.3-8.8l-0.3,2.1l0.3-2.1c-0.6,2.9-1,5.8-1.3,8.8l0,0.9l0-0.2l0,0.2l-6.8,1.8v13.7l6.8,1.8
			l1.3,8.5l-1.3-8.5l15.8,4.3l0.2,1.3c0.5,2.4,1.1,4.7,1.8,7l2.1,5.8h0v0L42.5,217l0,0l0,0L18,212.8v-39.9l24.2-4.2l0.7-2.7
			c1.7-5.5,4-10.8,6.7-15.8l0.2-0.4l-14.4-20.3L63.7,101.3z M128.7,97.6L128.7,97.6L128.7,97.6L128.7,97.6z M128.7,83h15.1v22.6
			v15.3l0,0v27.9l0,0v16v0l0,0l-4.1-2.2c-1.9-0.8-3.9-1.4-6-1.9l-5-0.5v-14.4l7.9,0.8l0,0l-7.9-0.8V97.6l0,0v0h5.4l1.8,6.8h0l0,0
			l0,0l0,0l4.2,15.7l0,0l0,0l1.9,0.3l0.8,0.2l-0.8-0.2l-1.9-0.3l-4.2-15.7l0.4,0l-0.4,0l0.4,0l-0.4,0l-1.8-6.8l0,0v0h-5.4V83z
			 M107.2,83h21.4v0l0,0v14.6l0,0l0,0h-8.4l-1.8,6.8l-4.2,15.8l-1.8,0.3c-2.4,0.5-4.7,1.1-7,1.8l-5.3,1.9l2.9-16.8l6.4-1.6l-6.4,1.6
			L107.2,83z M167.4,16h177.1c21.4,0,38.7,17.4,38.7,38.8v157.5h-15.1V56.1c0-13.1-10.7-23.8-23.8-23.8H167.6
			c-13.1,0-23.8,10.7-23.8,23.8V83h-15.1V54.8C128.7,33.4,146,16,167.4,16z"/>
		<path class="st2" d="M245.5,295.2c-4.4-1.2-7.1-5.8-5.9-10.2l16.7-62.3c1.2-4.4,5.8-7.1,10.2-5.9l0,0c4.4,1.2,7.1,5.8,5.9,10.2
			l-16.7,62.3C254.5,293.8,249.9,296.4,245.5,295.2z"/>
		<path class="st2" d="M215.7,216.3c2.1,0,4.3,0.8,5.9,2.4l0,0c3.3,3.3,3.3,8.5,0,11.8l-25.8,25.8l25.8,25.8c3.3,3.3,3.3,8.5,0,11.8
			l0,0c-3.3,3.3-8.5,3.3-11.8,0l-31.3-31.3c-1.6-1.6-2.4-3.8-2.4-5.9l0.1-0.4l-0.1-0.4c0-2.1,0.8-4.3,2.4-5.9l31.3-31.3
			C211.4,217.1,213.6,216.3,215.7,216.3z"/>
		<path class="st2" d="M296.3,216.3c2.1,0,4.3,0.8,5.9,2.4l31.3,31.3c1.6,1.6,2.4,3.8,2.4,5.9l-0.1,0.4l0.1,0.4
			c0,2.1-0.8,4.3-2.4,5.9L302.2,294c-3.3,3.3-8.5,3.3-11.8,0l0,0c-3.3-3.3-3.3-8.5,0-11.8l25.8-25.8l-25.8-25.8
			c-3.3-3.3-3.3-8.5,0-11.8l0,0C292,217.1,294.1,216.3,296.3,216.3z"/>
		<path class="st2" d="M416,88c0-4.4,3.6-8,8-8s8,3.6,8,8s-3.6,8-8,8S416,92.4,416,88z"/>
		<path class="st2" d="M416,120c0-4.4,3.6-8,8-8s8,3.6,8,8s-3.6,8-8,8S416,124.4,416,120z"/>
		<path class="st2" d="M416,152c0-4.4,3.6-8,8-8s8,3.6,8,8s-3.6,8-8,8S416,156.4,416,152z"/>
		<path class="st2" d="M80,361.5c0-4.1,3.6-7.5,8-7.5s8,3.4,8,7.5s-3.6,7.5-8,7.5S80,365.6,80,361.5z"/>
		<path class="st2" d="M80,393c0-4.4,3.6-8,8-8s8,3.6,8,8s-3.6,8-8,8S80,397.4,80,393z"/>
		<path class="st2" d="M80,425c0-4.4,3.6-8,8-8s8,3.6,8,8s-3.6,8-8,8S80,429.4,80,425z"/>
		<path class="st2" d="M224,56.5c0-4.7,3.8-8.5,8.5-8.5h47c4.7,0,8.5,3.8,8.5,8.5l0,0c0,4.7-3.8,8.5-8.5,8.5h-47
			C227.8,65,224,61.2,224,56.5z"/>
	</g>
</g>
</svg>
